<svg width="70" height="70" viewBox="0 0 70 70" fill="none" xmlns="http://www.w3.org/2000/svg">
<g filter="url(#filter0_d)">
<rect x="4" width="62" height="62" rx="31" fill="white"/>
</g>
<path d="M25.7996 30.4055C25.7996 31.563 26.7227 32.5058 27.864 32.5058C29.0018 32.5058 29.9284 31.5667 29.9284 30.4055C29.9284 29.248 29.0053 28.3052 27.864 28.3052C26.7227 28.3052 25.7996 29.2443 25.7996 30.4055Z" fill="black"/>
<path d="M33.9642 30.4055C33.9642 31.563 34.8872 32.5058 36.0286 32.5058C37.1663 32.5058 38.093 31.5667 38.093 30.4055C38.093 29.248 37.1699 28.3052 36.0286 28.3052C34.8872 28.3052 33.9642 29.2443 33.9642 30.4055Z" fill="black"/>
<path d="M42.1287 30.4055C42.1287 31.563 43.0518 32.5058 44.1931 32.5058C45.3309 32.5058 46.2575 31.5667 46.2575 30.4055C46.2575 29.248 45.3344 28.3052 44.1931 28.3052C43.0518 28.3052 42.1287 29.2443 42.1287 30.4055Z" fill="black"/>
<path d="M28.4856 42.4101L28.4855 42.4101L28.4855 42.4101L27.8878 42.2784L27.3686 42.6027L23.2458 45.1771L23.562 40.364L23.6017 39.76L23.2111 39.2977C21.7427 37.5594 20.8371 36.1575 20.2846 34.7572C19.7371 33.3699 19.5 31.8921 19.5 29.9531C19.5 22.7701 26.8012 16.5 35.7853 16.5C44.7096 16.5 51.5625 22.7193 51.5625 29.9531C51.5625 37.187 44.7096 43.4062 35.7853 43.4062C34.448 43.4062 32.6459 43.167 31.1199 42.9113C30.3693 42.7855 29.7076 42.6595 29.2339 42.5651C28.9974 42.5179 28.8083 42.4787 28.6794 42.4516C28.6149 42.438 28.5654 42.4274 28.5326 42.4203L28.4961 42.4124L28.4875 42.4105L28.4857 42.4101L28.4856 42.4101Z" stroke="black" stroke-width="3"/>
<defs>
<filter id="filter0_d" x="0" y="0" width="70" height="70" filterUnits="userSpaceOnUse" color-interpolation-filters="sRGB">
<feFlood flood-opacity="0" result="BackgroundImageFix"/>
<feColorMatrix in="SourceAlpha" type="matrix" values="0 0 0 0 0 0 0 0 0 0 0 0 0 0 0 0 0 0 127 0"/>
<feOffset dy="4"/>
<feGaussianBlur stdDeviation="2"/>
<feColorMatrix type="matrix" values="0 0 0 0 0 0 0 0 0 0 0 0 0 0 0 0 0 0 0.25 0"/>
<feBlend mode="normal" in2="BackgroundImageFix" result="effect1_dropShadow"/>
<feBlend mode="normal" in="SourceGraphic" in2="effect1_dropShadow" result="shape"/>
</filter>
</defs>
</svg>
