<svg width="99" height="99" viewBox="0 0 99 99" fill="none" xmlns="http://www.w3.org/2000/svg">
<g filter="url(#filter0_d)">
<rect x="4" width="91" height="91" rx="45.5" fill="white"/>
</g>
<path d="M39.8952 62.444L39.895 62.4439L39.0981 62.2684L38.4058 62.7007L32.0208 66.6877L32.5107 59.2306L32.5636 58.4254L32.0429 57.8089C29.8801 55.2486 28.5361 53.172 27.7139 51.0886C26.8986 49.0225 26.5483 46.8268 26.5483 43.9634C26.5483 33.2761 37.3912 24.0161 50.6526 24.0161C63.8341 24.0161 74.011 33.2083 74.011 43.9634C74.011 54.7186 63.8341 63.9108 50.6526 63.9108C48.6719 63.9108 46.0131 63.5572 43.7716 63.1815C42.6675 62.9964 41.6942 62.8112 40.9975 62.6723C40.6494 62.6029 40.3713 62.5452 40.1813 62.5052C40.0863 62.4852 40.0135 62.4696 39.965 62.4591L39.9109 62.4474L39.8982 62.4446L39.8954 62.444L39.8952 62.444Z" stroke="black" stroke-width="4"/>
<defs>
<filter id="filter0_d" x="0" y="0" width="99" height="99" filterUnits="userSpaceOnUse" color-interpolation-filters="sRGB">
<feFlood flood-opacity="0" result="BackgroundImageFix"/>
<feColorMatrix in="SourceAlpha" type="matrix" values="0 0 0 0 0 0 0 0 0 0 0 0 0 0 0 0 0 0 127 0"/>
<feOffset dy="4"/>
<feGaussianBlur stdDeviation="2"/>
<feColorMatrix type="matrix" values="0 0 0 0 0 0 0 0 0 0 0 0 0 0 0 0 0 0 0.25 0"/>
<feBlend mode="normal" in2="BackgroundImageFix" result="effect1_dropShadow"/>
<feBlend mode="normal" in="SourceGraphic" in2="effect1_dropShadow" result="shape"/>
</filter>
</defs>
</svg>
