<svg width="261" height="150" viewBox="0 0 361 250" fill="none" xmlns="http://www.w3.org/2000/svg">
<path d="M260.558 140.711C294.131 140.711 321.346 113.495 321.346 79.9224C321.346 46.3499 294.131 19.134 260.558 19.134C226.986 19.134 199.77 46.3499 199.77 79.9224C199.77 113.495 226.986 140.711 260.558 140.711Z" fill="white"/>
<path d="M352.841 136.308L332.014 115.481C346.915 85.5101 341.835 48.2582 316.944 23.3671C285.788 -7.78904 235.159 -7.78904 204.003 23.3671C172.847 54.5233 172.847 105.152 204.003 136.308C228.894 161.199 266.146 166.279 296.117 151.378L316.944 172.205C326.934 182.196 343.02 182.196 352.841 172.205C362.832 162.384 362.832 146.298 352.841 136.308ZM217.718 122.762C194.013 99.0562 194.013 60.7884 217.718 37.0826C241.424 13.3768 279.692 13.3768 303.398 37.0826C327.104 60.7884 327.104 99.0562 303.398 122.762C279.692 146.468 241.255 146.468 217.718 122.762Z" fill="#F1617E"/>
<path d="M254.293 98.8871C249.721 98.8871 247.52 96.6858 247.52 92.114V90.9287C247.52 87.5422 248.536 84.6636 250.568 82.293C252.6 79.9225 254.801 77.5519 257.341 75.52C259.711 73.3187 262.082 71.2868 264.114 69.2549C266.146 67.223 267.162 65.0217 267.162 62.6511C267.162 60.4499 266.315 58.7566 264.622 57.402C262.929 56.0474 260.727 55.3701 258.357 55.3701C257.172 55.3701 256.156 55.5394 254.97 55.878C253.954 56.2167 252.769 56.5554 251.922 57.0633C250.06 57.91 248.197 58.418 246.335 58.2486C244.472 58.0793 242.948 57.2327 241.932 55.3701L238.884 50.9676C237.699 49.105 237.022 47.4117 237.022 45.8878C237.022 44.3638 238.038 43.0092 239.9 41.8239C242.101 40.4693 244.811 39.1147 248.367 37.7601C251.753 36.4055 255.986 35.7281 260.558 35.7281C264.114 35.7281 267.501 36.2361 270.887 37.2521C274.274 38.2681 277.491 39.792 280.2 41.8239C282.909 43.8558 285.28 46.3957 286.973 49.4436C288.666 52.4915 289.513 56.0474 289.513 60.1112C289.513 63.3284 289.005 66.0377 288.158 68.4082C287.142 70.7788 285.957 72.9801 284.603 74.8427C283.248 76.7053 281.555 78.3985 279.861 80.0918C278.168 81.6157 276.475 83.1397 274.951 84.4943C273.427 85.8489 272.072 87.2035 270.887 88.7275C269.702 90.0821 268.855 91.606 268.516 93.13L268.178 94.6539C267.839 96.3472 266.993 97.5325 265.977 98.2098C264.961 98.8871 263.606 99.2257 261.574 99.2257H254.293V98.8871ZM248.028 114.465C248.028 109.893 250.229 107.692 254.801 107.692H260.727C265.299 107.692 267.501 109.893 267.501 114.465V119.376C267.501 123.947 265.299 126.149 260.727 126.149H254.801C250.229 126.149 248.028 123.947 248.028 119.376V114.465Z" fill="#F1617E"/>
<path d="M243.964 162.554L240.578 120.391C240.408 118.359 239.9 116.327 239.054 114.634C239.731 112.941 240.07 111.078 240.07 109.046V106.845C240.07 102.612 238.546 99.0561 236.006 96.3469C236.175 95.3309 236.175 94.4843 236.175 93.4683V91.2671C236.175 90.0818 236.006 88.8965 235.836 87.8805C237.868 85.3406 239.223 81.9541 239.223 78.0596V75.8583C239.223 67.0533 232.619 60.4496 223.984 60.4496H205.527C200.955 60.4496 197.23 62.1429 194.521 64.8521C192.827 63.8361 191.134 63.1588 189.272 62.4815C185.546 61.1269 181.313 60.4496 176.911 60.4496H165.904C163.365 60.4496 161.163 60.9576 159.131 61.9735C157.099 61.1269 154.898 60.4496 152.358 60.4496H148.972C145.247 60.4496 142.029 61.6349 139.489 63.4975C136.78 61.4655 133.394 60.4496 129.838 60.4496H125.605C121.202 60.4496 117.308 62.1429 114.598 64.8521C113.074 63.8361 111.381 62.9895 109.688 62.3122C105.624 60.6189 101.391 59.7723 96.819 59.7723C92.2472 59.7723 87.8447 60.6189 83.7809 62.3122C79.717 64.0054 76.1612 66.376 73.2826 69.2546C73.2826 69.2546 73.2826 69.2546 73.1133 69.4239C70.0654 62.9895 63.9696 59.095 56.3499 59.095H48.0529C39.7559 59.095 32.9828 64.0054 30.2736 72.1331L1.99599 157.135C-0.713245 164.924 1.99599 170.343 3.68925 172.883C5.55185 175.592 9.78502 179.994 18.082 179.994H24.0085C32.6442 179.994 39.4172 174.745 41.7878 166.448L48.7302 143.928H55.5033L62.7843 166.618C65.1549 174.915 71.928 179.994 80.5637 179.994H86.4901C90.3846 179.994 93.4325 178.978 95.8031 177.624C98.5123 179.148 101.56 179.994 105.116 179.994H111.212C121.541 179.994 128.653 172.883 128.653 162.554V143.928V163.57C128.653 172.883 135.426 179.656 144.739 179.656H169.291C171.662 179.656 173.863 179.317 175.725 178.47C177.588 179.317 179.789 179.656 181.99 179.656H186.562C192.827 179.656 198.077 176.608 200.786 171.528C201.632 171.697 202.31 171.697 203.156 171.697H207.051C207.897 171.697 208.575 171.697 209.421 171.528C212.131 176.439 217.38 179.656 223.645 179.656H228.217C232.958 179.656 237.191 177.793 240.239 174.576C242.948 171.528 244.303 167.126 243.964 162.554ZM98.343 92.4524C98.1737 92.6217 97.835 92.9604 97.4964 92.9604C96.9884 93.1297 96.819 93.1297 96.819 93.1297C96.819 93.1297 96.4804 93.1297 96.1417 92.9604C95.8031 92.791 95.6338 92.6217 95.2951 92.4524C95.2951 92.4524 95.2951 92.4524 95.1258 92.283C95.2951 92.1137 95.4644 91.9444 95.8031 91.7751C96.6497 91.4364 96.9884 91.4364 97.835 91.7751C98.0043 92.1137 98.1737 92.283 98.343 92.4524Z" fill="white"/>
<path d="M243.118 160.183L239.731 118.021C239.562 115.989 239.054 113.957 238.207 112.264C238.884 110.57 239.223 108.708 239.223 106.676V104.475C239.223 100.242 237.699 96.6856 235.159 93.9764C235.328 92.9604 235.328 92.1138 235.328 91.0978V88.8966C235.328 87.7113 235.159 86.526 234.99 85.5101C237.022 82.9702 238.376 79.5836 238.376 75.6891V73.4879C238.376 64.6829 231.773 58.0791 223.137 58.0791H204.68C200.108 58.0791 196.383 59.7724 193.674 62.4816C191.981 61.4656 190.288 60.7883 188.425 60.111C184.7 58.7564 180.467 58.0791 176.064 58.0791H165.227C162.687 58.0791 160.486 58.5871 158.454 59.603C156.422 58.7564 154.221 58.0791 151.681 58.0791H148.125C144.4 58.0791 141.183 59.2644 138.643 61.127C135.934 59.0951 132.547 58.0791 128.991 58.0791H124.758C120.355 58.0791 116.461 59.7724 113.752 62.4816C112.228 61.4656 110.535 60.619 108.841 59.9417C104.777 58.2484 100.544 57.4018 95.9724 57.4018C91.4006 57.4018 86.9981 58.2484 82.9342 59.9417C78.8704 61.635 75.3145 64.0055 72.436 66.8841C72.436 66.8841 72.436 66.8841 72.2666 67.0534C69.2188 60.619 63.123 56.7245 55.5033 56.7245H47.3756C39.0786 56.7245 32.3055 61.635 29.5963 69.7627L1.14935 154.595C-1.55988 162.384 1.14935 167.803 2.84262 170.343C4.70522 173.052 8.93839 177.455 17.2354 177.455H23.1618C31.7975 177.455 38.5706 172.205 40.9412 163.908L48.0529 141.557H54.826L62.107 164.247C64.4776 172.544 71.2507 177.624 79.8864 177.624H85.8128C89.7073 177.624 92.7552 176.608 95.1258 175.253C97.835 176.777 100.883 177.624 104.439 177.624H110.535C120.863 177.624 127.975 170.512 127.975 160.183V141.557V161.199C127.975 170.512 134.748 177.285 144.061 177.285H168.444C170.815 177.285 173.016 176.947 174.879 176.1C176.741 176.947 178.943 177.285 181.144 177.285H185.716C191.981 177.285 197.23 174.237 199.939 169.158C200.786 169.327 201.463 169.327 202.31 169.327H206.204C207.051 169.327 207.728 169.327 208.575 169.158C211.284 174.068 216.533 177.285 222.798 177.285H227.37C232.111 177.285 236.344 175.423 239.392 172.205C242.102 168.988 243.456 164.755 243.118 160.183ZM97.4964 90.0819C97.327 90.2512 96.9884 90.5899 96.6497 90.5899C96.1417 90.7592 95.9724 90.7592 95.9724 90.7592C95.9724 90.7592 95.6338 90.7592 95.2951 90.5899C94.9565 90.4205 94.7871 90.2512 94.4485 90.0819C94.4485 90.0819 94.4485 90.0819 94.2791 89.9126C94.4485 89.7432 94.6178 89.5739 94.9564 89.4046C95.8031 89.0659 96.1417 89.0659 96.9884 89.4046C97.1577 89.5739 97.327 89.7432 97.4964 90.0819Z" fill="white"/>
<path d="M81.9183 106.845C83.7809 108.708 85.8128 110.232 88.3527 111.248C90.8926 112.264 93.6018 112.772 96.6497 112.772C99.6976 112.772 102.407 112.264 104.947 111.248C107.487 110.232 109.519 108.708 111.381 106.845C113.244 104.983 114.598 102.781 115.614 100.241C116.63 97.7016 117.138 94.9923 117.138 92.1138C117.138 89.2352 116.63 86.6953 115.614 84.1554C114.598 81.7848 113.244 79.5836 111.381 77.721C109.519 75.8584 107.487 74.5038 104.947 73.4878C102.407 72.4719 99.6976 71.9639 96.6497 71.9639C93.6018 71.9639 90.8926 72.4719 88.3527 73.4878C85.8128 74.5038 83.7809 75.8584 81.9183 77.721C80.0557 79.5836 78.701 81.6155 77.6851 84.1554C76.6691 86.526 76.1611 89.2352 76.1611 92.1138C76.1611 94.9923 76.6691 97.7016 77.6851 100.241C78.8704 102.781 80.225 104.983 81.9183 106.845ZM86.9981 87.7113C87.506 86.3567 88.1834 85.1714 89.1993 84.1554C90.2153 83.1394 91.2312 82.2928 92.5859 81.7848C93.9405 81.2768 95.2951 80.9382 96.819 80.9382C98.343 80.9382 99.6976 81.2768 101.052 81.7848C102.407 82.2928 103.423 83.1394 104.439 84.1554C105.285 85.1714 106.132 86.3567 106.64 87.7113C107.148 89.0659 107.487 90.5898 107.487 92.2831C107.487 93.9764 107.148 95.5003 106.64 97.0242C106.132 98.3789 105.455 99.7335 104.439 100.749C103.592 101.765 102.407 102.612 101.052 103.289C99.6976 103.967 98.343 104.136 96.819 104.136C95.2951 104.136 93.9405 103.797 92.5859 103.289C91.2312 102.612 90.2153 101.935 89.1993 100.749C88.3527 99.7335 87.506 98.5482 86.9981 97.0242C86.4901 95.6696 86.1514 93.9764 86.1514 92.2831C86.1514 90.5898 86.4901 89.0659 86.9981 87.7113Z" fill="#5A5A5A"/>
<path d="M123.911 112.772H127.467C129.499 112.772 130.515 111.756 130.515 109.724V89.0661C130.854 89.9127 142.537 110.74 142.537 110.74C143.384 112.095 144.4 112.772 146.093 112.772H150.326C152.358 112.772 153.374 111.756 153.374 109.724V75.1813C153.374 73.1494 152.358 72.1334 150.326 72.1334H147.278C145.247 72.1334 144.231 73.1494 144.231 75.1813V96.5165C143.892 95.6699 131.87 74.1653 131.87 74.1653C131.023 72.8107 129.838 72.1334 128.314 72.1334H124.081C122.049 72.1334 121.033 73.1494 121.033 75.1813V109.724C121.033 111.756 122.049 112.772 123.911 112.772Z" fill="#5A5A5A"/>
<path d="M189.779 107.523C191.473 105.829 192.827 103.12 193.843 100.75C194.859 98.2098 195.198 95.5005 195.198 92.4526C195.198 89.4048 194.69 86.5262 193.843 84.1556C192.827 81.7851 191.473 79.0758 189.779 77.3826C188.086 75.6893 185.885 74.504 183.514 73.488C180.974 72.6414 178.265 72.1334 175.217 72.1334H164.38C162.348 72.1334 161.333 73.1494 161.333 75.1813V109.724C161.333 111.756 162.348 112.772 164.38 112.772H175.217C178.265 112.772 180.974 112.264 183.514 111.417C186.054 110.571 188.086 109.216 189.779 107.523ZM174.879 103.967H170.984V80.9384H174.879C178.096 80.9384 180.636 81.9544 182.668 83.817C184.53 85.6796 185.546 88.5581 185.546 92.2833C185.546 96.0085 184.53 98.8871 182.668 100.919C180.805 102.951 178.096 103.967 174.879 103.967Z" fill="#5A5A5A"/>
<path d="M203.834 112.772H222.29C224.322 112.772 225.338 111.756 225.338 109.724V107.015C225.338 104.983 224.322 103.967 222.29 103.967H210.437V96.5165H218.734C220.766 96.5165 221.782 95.5005 221.782 93.4686V92.114C221.782 90.0821 220.766 89.0661 218.734 89.0661H210.437V80.9384H222.29C224.322 80.9384 225.338 80.0918 225.338 78.0599V75.1813C225.338 73.1494 224.322 72.1334 222.29 72.1334H203.834C201.802 72.1334 200.786 73.1494 200.786 75.1813V109.724C200.955 111.756 201.971 112.772 203.834 112.772Z" fill="#5A5A5A"/>
<path d="M91.0619 161.03L81.241 131.567L76.4998 117.513L62.4457 76.7053C61.599 73.6574 59.5671 72.1334 56.3499 72.1334H48.0529C45.005 72.1334 42.9731 73.6574 41.9571 76.7053L13.6795 161.03C13.0022 163.062 13.0022 164.586 13.8489 165.771C14.6955 166.956 16.0501 167.464 18.082 167.464H24.0085C27.2257 167.464 29.2576 165.941 30.1042 162.723L39.9252 131.567H64.8162L74.9759 162.893C75.8225 165.941 77.8544 167.464 81.0716 167.464H86.9981C89.03 167.464 90.3846 166.956 91.2313 165.771C91.5699 164.755 91.7392 163.062 91.0619 161.03ZM44.1584 118.021L46.5289 109.893C46.5289 109.893 51.7781 90.9287 52.2861 89.0661H52.4554C52.794 90.9287 58.2125 109.893 58.2125 109.893L60.2444 117.852H44.1584V118.021Z" fill="#5A5A5A"/>
<path d="M167.09 157.643H153.205V147.653H164.55C167.09 147.653 168.275 146.468 168.275 143.928V141.727C168.275 139.187 166.92 138.002 164.55 138.002H153.205V128.011H167.09C169.63 128.011 170.815 126.826 170.815 124.286V121.915C170.815 119.376 169.63 118.19 167.09 118.19H144.908C142.368 118.19 141.183 119.545 141.183 121.915V163.739C141.183 166.279 142.368 167.464 144.908 167.464H167.09C169.63 167.464 170.815 166.279 170.815 163.739V161.538C170.984 158.998 169.63 157.643 167.09 157.643Z" fill="#A3A1A1"/>
<path d="M232.281 163.57L228.894 121.746C228.725 119.375 227.37 118.021 224.999 118.021H218.734C216.533 118.021 215.178 119.037 214.501 121.069C214.501 121.069 206.204 146.129 205.866 146.976H205.696C205.358 145.96 197.061 121.069 197.061 121.069C196.383 119.037 194.859 118.021 192.827 118.021H186.562C184.192 118.021 182.837 119.206 182.668 121.746L179.281 163.57C179.112 164.755 179.451 165.771 180.128 166.448C180.805 167.126 181.652 167.464 183.006 167.464H187.578C189.949 167.464 191.303 166.279 191.473 163.739C191.473 163.739 193.335 137.663 193.335 136.816L199.77 156.458C200.447 158.49 201.971 159.506 204.172 159.506H208.067C210.268 159.506 211.623 158.49 212.469 156.458C212.469 156.458 218.396 138.34 218.734 137.324L220.597 163.739C220.766 166.11 222.121 167.464 224.491 167.464H229.063C230.249 167.464 231.265 167.126 231.942 166.448C232.111 165.771 232.281 164.755 232.281 163.57Z" fill="#A3A1A1"/>
<path d="M130.684 118.021H88.8607L94.1098 131.906H107.317V162.554C107.317 165.94 109.011 167.634 112.397 167.634H115.953C119.339 167.634 121.033 165.94 121.033 162.554V131.906H130.684C134.071 131.906 135.764 130.212 135.764 126.826V123.101C135.764 119.714 134.071 118.021 130.684 118.021Z" fill="#A3A1A1"/>
</svg>
