<svg width="361" height="204" viewBox="0 0 361 204" fill="none" xmlns="http://www.w3.org/2000/svg">
<path d="M230.991 204H115.341C105.351 204 97.2232 195.872 97.2232 185.882C97.2232 175.892 105.351 167.764 115.341 167.764H230.991C240.982 167.764 249.109 175.892 249.109 185.882C249.109 195.872 240.982 204 230.991 204Z" fill="white"/>
<path d="M260.793 141.011C294.365 141.011 321.581 113.795 321.581 80.2223C321.581 46.6498 294.365 19.434 260.793 19.434C227.221 19.434 200.005 46.6498 200.005 80.2223C200.005 113.795 227.221 141.011 260.793 141.011Z" fill="white"/>
<path d="M353.076 136.608L332.249 115.781C347.15 85.81 342.07 48.5581 317.179 23.667C286.023 -7.48911 235.394 -7.48911 204.238 23.667C173.082 54.8232 173.082 105.452 204.238 136.608C229.129 161.499 266.381 166.579 296.352 151.678L317.179 172.505C327.169 182.496 343.255 182.496 353.076 172.505C363.066 162.684 363.066 146.598 353.076 136.608ZM217.953 123.062C194.248 99.3562 194.248 61.0883 217.953 37.3825C241.659 13.6768 279.927 13.6768 303.633 37.3825C327.338 61.0883 327.338 99.3562 303.633 123.062C279.927 146.768 241.49 146.768 217.953 123.062Z" fill="#F1617E"/>
<path d="M254.528 99.187C249.956 99.187 247.755 96.9858 247.755 92.4139V91.2286C247.755 87.8421 248.771 84.9635 250.803 82.593C252.835 80.2224 255.036 77.8518 257.576 75.8199C259.946 73.6186 262.317 71.5867 264.349 69.5548C266.381 67.5229 267.397 65.3216 267.397 62.9511C267.397 60.7498 266.55 59.0565 264.857 57.7019C263.164 56.3473 260.962 55.67 258.592 55.67C257.406 55.67 256.391 55.8393 255.205 56.178C254.189 56.5166 253.004 56.8553 252.157 57.3633C250.295 58.2099 248.432 58.7179 246.57 58.5486C244.707 58.3792 243.183 57.5326 242.167 55.67L239.119 51.2675C237.934 49.4049 237.257 47.7116 237.257 46.1877C237.257 44.6637 238.273 43.3091 240.135 42.1238C242.336 40.7692 245.046 39.4146 248.601 38.06C251.988 36.7054 256.221 36.0281 260.793 36.0281C264.349 36.0281 267.735 36.5361 271.122 37.552C274.508 38.568 277.726 40.0919 280.435 42.1238C283.144 44.1558 285.515 46.6957 287.208 49.7436C288.901 52.7914 289.748 56.3473 289.748 60.4111C289.748 63.6284 289.24 66.3376 288.393 68.7082C287.377 71.0787 286.192 73.28 284.837 75.1426C283.483 77.0052 281.79 78.6985 280.096 80.3917C278.403 81.9157 276.71 83.4396 275.186 84.7942C273.662 86.1488 272.307 87.5035 271.122 89.0274C269.937 90.382 269.09 91.906 268.751 93.4299L268.413 94.9538C268.074 96.6471 267.227 97.8324 266.211 98.5097C265.196 99.187 263.841 99.5257 261.809 99.5257H254.528V99.187ZM248.263 114.765C248.263 110.193 250.464 107.992 255.036 107.992H260.962C265.534 107.992 267.735 110.193 267.735 114.765V119.676C267.735 124.247 265.534 126.449 260.962 126.449H255.036C250.464 126.449 248.263 124.247 248.263 119.676V114.765Z" fill="#F1617E"/>
<path d="M244.199 162.854L240.812 120.691C240.643 118.659 240.135 116.627 239.289 114.934C239.966 113.241 240.304 111.378 240.304 109.346V107.145C240.304 102.912 238.781 99.356 236.241 96.6468C236.41 95.6309 236.41 94.7842 236.41 93.7683V91.567C236.41 90.3817 236.241 89.1964 236.071 88.1805C238.103 85.6406 239.458 82.254 239.458 78.3595V76.1583C239.458 67.3533 232.854 60.7495 224.218 60.7495H205.762C201.19 60.7495 197.465 62.4428 194.756 65.152C193.062 64.136 191.369 63.4587 189.506 62.7814C185.781 61.4268 181.548 60.7495 177.146 60.7495H166.139C163.599 60.7495 161.398 61.2575 159.366 62.2734C157.334 61.4268 155.133 60.7495 152.593 60.7495H149.207C145.481 60.7495 142.264 61.9348 139.724 63.7974C137.015 61.7655 133.629 60.7495 130.073 60.7495H125.839C121.437 60.7495 117.542 62.4428 114.833 65.152C113.309 64.136 111.616 63.2894 109.923 62.6121C105.859 60.9188 101.626 60.0722 97.0539 60.0722C92.4821 60.0722 88.0796 60.9188 84.0158 62.6121C79.9519 64.3054 76.396 66.676 73.5175 69.5545C73.5175 69.5545 73.5175 69.5545 73.3482 69.7238C70.3003 63.2894 64.2045 59.3949 56.5848 59.3949H48.2878C39.9908 59.3949 33.2177 64.3054 30.5085 72.4331L2.23086 157.435C-0.478366 165.224 2.23086 170.643 3.92413 173.183C5.78673 175.892 10.0199 180.294 18.3169 180.294H24.2434C32.879 180.294 39.6521 175.045 42.0227 166.748L48.9651 144.228H55.7382L63.0192 166.917C65.3898 175.215 72.1629 180.294 80.7985 180.294H86.725C90.6195 180.294 93.6674 179.278 96.038 177.924C98.7472 179.448 101.795 180.294 105.351 180.294H111.447C121.776 180.294 128.887 173.183 128.887 162.854V144.228V163.87C128.887 173.183 135.66 179.956 144.973 179.956H169.526C171.896 179.956 174.098 179.617 175.96 178.77C177.823 179.617 180.024 179.956 182.225 179.956H186.797C193.062 179.956 198.311 176.908 201.021 171.828C201.867 171.997 202.545 171.997 203.391 171.997H207.286C208.132 171.997 208.81 171.997 209.656 171.828C212.366 176.738 217.615 179.956 223.88 179.956H228.452C233.193 179.956 237.426 178.093 240.474 174.876C243.183 171.828 244.538 167.425 244.199 162.854ZM98.5779 92.7523C98.4085 92.9216 98.0699 93.2603 97.7312 93.2603C97.2233 93.4296 97.0539 93.4296 97.0539 93.4296C97.0539 93.4296 96.7153 93.4296 96.3766 93.2603C96.038 93.091 95.8686 92.9216 95.53 92.7523C95.53 92.7523 95.53 92.7523 95.3607 92.583C95.53 92.4136 95.6993 92.2443 96.038 92.075C96.8846 91.7363 97.2233 91.7363 98.0699 92.075C98.2392 92.4136 98.4085 92.583 98.5779 92.7523Z" fill="white"/>
<path d="M243.352 160.483L239.966 118.321C239.797 116.289 239.289 114.257 238.442 112.564C239.119 110.87 239.458 109.008 239.458 106.976V104.775C239.458 100.541 237.934 96.9856 235.394 94.2763C235.563 93.2604 235.563 92.4137 235.563 91.3978V89.1965C235.563 88.0112 235.394 86.8259 235.225 85.81C237.257 83.2701 238.611 79.8835 238.611 75.989V73.7878C238.611 64.9828 232.007 58.379 223.372 58.379H204.915C200.343 58.379 196.618 60.0723 193.909 62.7815C192.216 61.7656 190.522 61.0883 188.66 60.411C184.935 59.0563 180.701 58.379 176.299 58.379H165.462C162.922 58.379 160.721 58.887 158.689 59.903C156.657 59.0563 154.456 58.379 151.916 58.379H148.36C144.635 58.379 141.418 59.5643 138.878 61.4269C136.168 59.395 132.782 58.379 129.226 58.379H124.993C120.59 58.379 116.696 60.0723 113.987 62.7815C112.463 61.7656 110.769 60.9189 109.076 60.2416C105.012 58.5484 100.779 57.7017 96.2073 57.7017C91.6355 57.7017 87.233 58.5484 83.1691 60.2416C79.1053 61.9349 75.5494 64.3055 72.6709 67.184C72.6709 67.184 72.6709 67.184 72.5015 67.3534C69.4536 60.9189 63.3579 57.0244 55.7382 57.0244H47.6105C39.3135 57.0244 32.5404 61.9349 29.8312 70.0626L1.38423 154.895C-1.325 162.684 1.38423 168.103 3.0775 170.643C4.9401 173.352 9.17327 177.755 17.4703 177.755H23.3967C32.0324 177.755 38.8055 172.505 41.1761 164.208L48.2878 141.857H55.0609L62.3419 164.547C64.7125 172.844 71.4856 177.924 80.1212 177.924H86.0477C89.9422 177.924 92.9901 176.908 95.3607 175.553C98.0699 177.077 101.118 177.924 104.674 177.924H110.769C121.098 177.924 128.21 170.812 128.21 160.483V141.857V161.499C128.21 170.812 134.983 177.585 144.296 177.585H168.679C171.05 177.585 173.251 177.247 175.114 176.4C176.976 177.247 179.177 177.585 181.379 177.585H185.951C192.216 177.585 197.465 174.537 200.174 169.457C201.021 169.627 201.698 169.627 202.545 169.627H206.439C207.286 169.627 207.963 169.627 208.81 169.457C211.519 174.368 216.768 177.585 223.033 177.585H227.605C232.346 177.585 236.579 175.723 239.627 172.505C242.336 169.288 243.691 165.055 243.352 160.483ZM97.7312 90.3818C97.5619 90.5511 97.2233 90.8898 96.8846 90.8898C96.3766 91.0591 96.2073 91.0591 96.2073 91.0591C96.2073 91.0591 95.8686 91.0591 95.53 90.8898C95.1913 90.7205 95.022 90.5511 94.6833 90.3818C94.6833 90.3818 94.6833 90.3818 94.514 90.2125C94.6833 90.0432 94.8527 89.8738 95.1913 89.7045C96.038 89.3659 96.3766 89.3659 97.2233 89.7045C97.3926 89.8738 97.5619 90.0432 97.7312 90.3818Z" fill="white"/>
<path d="M82.1531 107.145C84.0157 109.008 86.0477 110.532 88.5876 111.548C91.1275 112.564 93.8367 113.072 96.8846 113.072C99.9325 113.072 102.642 112.564 105.182 111.548C107.721 110.532 109.753 109.008 111.616 107.145C113.479 105.283 114.833 103.081 115.849 100.542C116.865 98.0016 117.373 95.2924 117.373 92.4138C117.373 89.5353 116.865 86.9954 115.849 84.4555C114.833 82.0849 113.479 79.8836 111.616 78.021C109.753 76.1584 107.721 74.8038 105.182 73.7879C102.642 72.7719 99.9325 72.2639 96.8846 72.2639C93.8367 72.2639 91.1275 72.7719 88.5876 73.7879C86.0477 74.8038 84.0157 76.1584 82.1531 78.021C80.2905 79.8836 78.9359 81.9156 77.92 84.4555C76.904 86.826 76.396 89.5353 76.396 92.4138C76.396 95.2924 76.904 98.0016 77.92 100.542C79.1053 103.081 80.4599 105.283 82.1531 107.145ZM87.2329 88.0113C87.7409 86.6567 88.4182 85.4714 89.4342 84.4555C90.4502 83.4395 91.4661 82.5929 92.8207 82.0849C94.1753 81.5769 95.53 81.2382 97.0539 81.2382C98.5778 81.2382 99.9325 81.5769 101.287 82.0849C102.642 82.5929 103.658 83.4395 104.674 84.4555C105.52 85.4714 106.367 86.6567 106.875 88.0113C107.383 89.3659 107.721 90.8899 107.721 92.5831C107.721 94.2764 107.383 95.8004 106.875 97.3243C106.367 98.6789 105.69 100.034 104.674 101.049C103.827 102.065 102.642 102.912 101.287 103.589C99.9325 104.267 98.5778 104.436 97.0539 104.436C95.53 104.436 94.1753 104.097 92.8207 103.589C91.4661 102.912 90.4502 102.235 89.4342 101.049C88.5876 100.034 87.7409 98.8482 87.2329 97.3243C86.725 95.9697 86.3863 94.2764 86.3863 92.5831C86.3863 90.8899 86.725 89.3659 87.2329 88.0113Z" fill="#5A5A5A"/>
<path d="M124.146 113.072H127.702C129.734 113.072 130.75 112.056 130.75 110.024V89.366C131.089 90.2127 142.772 111.04 142.772 111.04C143.619 112.395 144.635 113.072 146.328 113.072H150.561C152.593 113.072 153.609 112.056 153.609 110.024V75.4812C153.609 73.4493 152.593 72.4333 150.561 72.4333H147.513C145.481 72.4333 144.465 73.4493 144.465 75.4812V96.8164C144.127 95.9698 132.105 74.4653 132.105 74.4653C131.258 73.1107 130.073 72.4333 128.549 72.4333H124.316C122.284 72.4333 121.268 73.4493 121.268 75.4812V110.024C121.268 112.056 122.284 113.072 124.146 113.072Z" fill="#5A5A5A"/>
<path d="M190.014 107.823C191.708 106.129 193.062 103.42 194.078 101.05C195.094 98.5097 195.433 95.8005 195.433 92.7526C195.433 89.7047 194.925 86.8261 194.078 84.4556C193.062 82.085 191.708 79.3758 190.014 77.6825C188.321 75.9892 186.12 74.8039 183.749 73.788C181.209 72.9413 178.5 72.4333 175.452 72.4333H164.615C162.583 72.4333 161.567 73.4493 161.567 75.4812V110.024C161.567 112.056 162.583 113.072 164.615 113.072H175.452C178.5 113.072 181.209 112.564 183.749 111.717C186.289 110.871 188.321 109.516 190.014 107.823ZM175.114 104.267H171.219V81.2383H175.114C178.331 81.2383 180.871 82.2543 182.903 84.1169C184.765 85.9795 185.781 88.8581 185.781 92.5833C185.781 96.3084 184.765 99.187 182.903 101.219C181.04 103.251 178.331 104.267 175.114 104.267Z" fill="#5A5A5A"/>
<path d="M204.069 113.072H222.525C224.557 113.072 225.573 112.056 225.573 110.024V107.315C225.573 105.283 224.557 104.267 222.525 104.267H210.672V96.8164H218.969C221.001 96.8164 222.017 95.8005 222.017 93.7685V92.4139C222.017 90.382 221.001 89.366 218.969 89.366H210.672V81.2383H222.525C224.557 81.2383 225.573 80.3917 225.573 78.3598V75.4812C225.573 73.4493 224.557 72.4333 222.525 72.4333H204.069C202.037 72.4333 201.021 73.4493 201.021 75.4812V110.024C201.19 112.056 202.206 113.072 204.069 113.072Z" fill="#5A5A5A"/>
<path d="M91.2968 161.33L81.4758 131.867L76.7347 117.813L62.6805 77.0052C61.8339 73.9573 59.802 72.4333 56.5848 72.4333H48.2878C45.2399 72.4333 43.2079 73.9573 42.192 77.0052L13.9144 161.33C13.2371 163.362 13.2371 164.886 14.0837 166.071C14.9304 167.256 16.285 167.764 18.3169 167.764H24.2433C27.4605 167.764 29.4925 166.24 30.3391 163.023L40.1601 131.867H65.0511L75.2107 163.193C76.0574 166.24 78.0893 167.764 81.3065 167.764H87.2329C89.2649 167.764 90.6195 167.256 91.4661 166.071C91.8048 165.055 91.9741 163.362 91.2968 161.33ZM44.3932 118.321L46.7638 110.193C46.7638 110.193 52.0129 91.2286 52.5209 89.366H52.6903C53.0289 91.2286 58.4474 110.193 58.4474 110.193L60.4793 118.152H44.3932V118.321Z" fill="#5A5A5A"/>
<path d="M167.325 157.943H153.44V147.953H164.785C167.325 147.953 168.51 146.768 168.51 144.228V142.027C168.51 139.487 167.155 138.301 164.785 138.301H153.44V128.311H167.325C169.864 128.311 171.05 127.126 171.05 124.586V122.215C171.05 119.676 169.864 118.49 167.325 118.49H145.143C142.603 118.49 141.418 119.845 141.418 122.215V164.039C141.418 166.579 142.603 167.764 145.143 167.764H167.325C169.864 167.764 171.05 166.579 171.05 164.039V161.838C171.219 159.298 169.864 157.943 167.325 157.943Z" fill="#A3A1A1"/>
<path d="M232.515 163.87L229.129 122.046C228.96 119.675 227.605 118.321 225.234 118.321H218.969C216.768 118.321 215.413 119.337 214.736 121.369C214.736 121.369 206.439 146.429 206.1 147.276H205.931C205.592 146.26 197.295 121.369 197.295 121.369C196.618 119.337 195.094 118.321 193.062 118.321H186.797C184.427 118.321 183.072 119.506 182.903 122.046L179.516 163.87C179.347 165.055 179.685 166.071 180.363 166.748C181.04 167.425 181.887 167.764 183.241 167.764H187.813C190.184 167.764 191.538 166.579 191.708 164.039C191.708 164.039 193.57 137.963 193.57 137.116L200.005 156.758C200.682 158.79 202.206 159.806 204.407 159.806H208.302C210.503 159.806 211.858 158.79 212.704 156.758C212.704 156.758 218.631 138.64 218.969 137.624L220.832 164.039C221.001 166.41 222.356 167.764 224.726 167.764H229.298C230.483 167.764 231.499 167.425 232.177 166.748C232.346 166.071 232.515 165.055 232.515 163.87Z" fill="#A3A1A1"/>
<path d="M130.919 118.321H89.0955L94.3447 132.205H107.552V162.854C107.552 166.24 109.245 167.933 112.632 167.933H116.188C119.574 167.933 121.268 166.24 121.268 162.854V132.205H130.919C134.306 132.205 135.999 130.512 135.999 127.126V123.4C135.999 120.014 134.306 118.321 130.919 118.321Z" fill="#A3A1A1"/>
<path d="M109.584 177.416C109.584 176.739 109.923 176.231 110.6 176.231H119.744C120.421 176.231 120.929 176.569 120.929 177.416V178.093C120.929 178.771 120.59 179.109 119.744 179.109H112.971V184.02H118.22C118.897 184.02 119.405 184.359 119.405 185.036V185.713C119.405 186.39 119.066 186.898 118.22 186.898H112.971V191.978H120.082C120.76 191.978 121.268 192.317 121.268 192.994V193.671C121.268 194.349 120.929 194.857 120.082 194.857H110.6C109.923 194.857 109.584 194.518 109.584 193.671V177.416Z" fill="#A3A1A1"/>
<path d="M125.162 177.247C125.332 176.569 125.67 176.231 126.347 176.231H128.041C128.718 176.231 129.057 176.569 129.226 177.077L132.613 185.544C132.782 185.882 132.782 186.052 132.951 186.39C133.121 186.729 133.121 187.068 133.29 187.237L133.629 188.253C133.798 187.914 133.798 187.576 133.967 187.237C134.137 186.898 134.137 186.729 134.306 186.39C134.475 186.052 134.475 185.713 134.644 185.544L138.031 177.077C138.2 176.4 138.708 176.231 139.386 176.231H141.079C141.756 176.231 142.095 176.569 142.264 177.247L143.619 193.841C143.619 194.518 143.28 195.026 142.603 195.026H141.418C140.74 195.026 140.402 194.687 140.232 194.01L139.555 184.528C139.555 184.189 139.555 183.851 139.555 183.512C139.555 183.173 139.555 182.835 139.555 182.496C139.555 182.157 139.555 181.819 139.555 181.48C139.386 181.819 139.386 182.157 139.216 182.496C139.047 182.835 139.047 183.173 138.878 183.512C138.708 183.851 138.708 184.189 138.539 184.359L135.83 190.793C135.66 191.301 135.152 191.64 134.644 191.64H133.459C132.782 191.64 132.443 191.301 132.105 190.793L129.395 184.359C129.226 184.02 129.226 183.851 129.057 183.512C128.887 183.173 128.887 182.835 128.718 182.496C128.549 182.157 128.549 181.819 128.379 181.48C128.379 181.819 128.379 182.157 128.379 182.496C128.379 182.835 128.379 183.173 128.379 183.512C128.379 183.851 128.379 184.189 128.379 184.528L127.702 194.01C127.702 194.687 127.194 195.026 126.517 195.026H125.332C124.654 195.026 124.146 194.687 124.316 193.841L125.162 177.247Z" fill="#A3A1A1"/>
<path d="M147.005 177.416C147.005 176.739 147.344 176.231 148.021 176.231H154.286C155.133 176.231 155.98 176.4 156.657 176.739C157.334 177.077 158.012 177.416 158.52 177.924C159.028 178.432 159.536 179.109 159.705 179.787C160.044 180.464 160.213 181.311 160.213 182.327C160.213 183.343 160.044 184.02 159.705 184.867C159.366 185.544 159.028 186.221 158.52 186.898C158.012 187.576 157.334 187.914 156.657 188.253C155.98 188.592 155.133 188.761 154.286 188.761H150.392V194.179C150.392 194.857 150.053 195.365 149.376 195.365H148.191C147.513 195.365 147.175 195.026 147.175 194.179V177.416H147.005ZM153.609 185.544C154.625 185.544 155.472 185.205 155.98 184.697C156.488 184.189 156.826 183.343 156.826 182.327C156.826 181.311 156.488 180.633 155.98 179.956C155.472 179.279 154.625 179.109 153.609 179.109H150.392V185.544H153.609Z" fill="#A3A1A1"/>
<path d="M163.091 177.416C163.091 176.739 163.43 176.231 164.107 176.231H169.187C170.203 176.231 170.88 176.231 171.388 176.4C171.896 176.4 172.404 176.569 172.743 176.739C173.759 177.077 174.436 177.755 175.114 178.601C175.622 179.448 175.96 180.633 175.96 181.819C175.96 182.327 175.96 183.004 175.791 183.512C175.622 184.02 175.452 184.528 175.114 185.036C174.775 185.544 174.606 185.882 174.098 186.221C173.759 186.56 173.251 186.898 172.743 187.068L172.912 187.237C172.912 187.406 173.082 187.406 173.082 187.576C173.082 187.745 173.251 187.914 173.251 188.084L176.299 193.841C176.468 194.179 176.638 194.518 176.468 194.857C176.299 195.026 175.96 195.195 175.622 195.195H174.267C173.759 195.195 173.251 194.857 172.912 194.349L169.526 188.084H166.309V194.01C166.309 194.687 165.97 195.195 165.293 195.195H164.107C163.43 195.195 163.091 194.857 163.091 194.01V177.416ZM169.526 185.036C170.372 185.036 171.219 184.697 171.727 184.189C172.235 183.681 172.574 182.835 172.574 181.988C172.574 181.311 172.404 180.803 172.235 180.464C172.066 180.125 171.558 179.617 171.05 179.448C170.88 179.279 170.542 179.279 170.203 179.279C169.864 179.279 169.526 179.279 169.018 179.279H166.478V185.205H169.526V185.036Z" fill="#A3A1A1"/>
<path d="M179.685 177.416C179.685 176.739 180.024 176.231 180.701 176.231H189.845C190.522 176.231 191.03 176.569 191.03 177.416V178.093C191.03 178.771 190.692 179.109 189.845 179.109H183.072V184.02H188.321C188.998 184.02 189.506 184.359 189.506 185.036V185.713C189.506 186.39 189.168 186.898 188.321 186.898H183.072V191.978H190.184C190.861 191.978 191.369 192.317 191.369 192.994V193.671C191.369 194.349 191.03 194.857 190.184 194.857H180.701C180.024 194.857 179.685 194.518 179.685 193.671V177.416Z" fill="#A3A1A1"/>
<path d="M193.74 193.502C193.57 193.333 193.401 193.163 193.232 192.825C193.232 192.655 193.232 192.317 193.57 191.978L194.078 191.132C194.248 190.793 194.586 190.624 194.756 190.624C194.925 190.624 195.264 190.624 195.602 190.793C195.771 190.962 195.941 190.962 196.279 191.132C196.449 191.301 196.787 191.47 197.126 191.64C197.465 191.809 197.803 191.978 198.142 191.978C198.481 192.147 198.989 192.147 199.497 192.147C200.343 192.147 201.021 191.978 201.529 191.47C202.037 191.132 202.206 190.624 202.206 189.946C202.206 189.269 202.037 188.93 201.529 188.422C201.021 188.084 200.513 187.745 199.835 187.406C199.158 187.068 198.481 186.729 197.803 186.39C197.126 186.052 196.279 185.713 195.771 185.205C195.264 184.697 194.586 184.189 194.078 183.512C193.57 182.835 193.401 181.988 193.401 181.141C193.401 180.295 193.57 179.617 193.909 178.94C194.248 178.263 194.756 177.755 195.264 177.247C195.771 176.739 196.449 176.4 197.295 176.061C198.142 175.723 198.819 175.723 199.835 175.723C200.343 175.723 200.851 175.723 201.359 175.892C201.867 176.061 202.375 176.061 202.714 176.231C203.053 176.4 203.561 176.569 203.899 176.739C204.238 176.908 204.407 177.077 204.746 177.247C205.254 177.585 205.423 178.093 205.084 178.771L204.576 179.617C204.407 179.956 204.069 180.125 203.899 180.125C203.561 180.125 203.391 180.125 203.053 179.956C202.714 179.787 202.206 179.448 201.698 179.279C201.19 179.109 200.513 178.94 199.835 178.94C198.989 178.94 198.311 179.109 197.803 179.448C197.295 179.787 196.957 180.295 196.957 180.972C196.957 181.48 197.126 181.988 197.634 182.496C198.142 183.004 198.65 183.173 199.327 183.512C200.005 183.85 200.682 184.189 201.359 184.358C202.037 184.697 202.883 185.036 203.391 185.544C203.899 186.052 204.576 186.56 205.084 187.237C205.592 187.914 205.762 188.761 205.762 189.777C205.762 190.454 205.592 191.301 205.254 191.978C204.915 192.655 204.576 193.333 204.069 193.671C203.561 194.179 202.883 194.518 202.037 194.857C201.19 195.195 200.343 195.365 199.327 195.365C198.65 195.365 197.973 195.365 197.465 195.195C196.787 195.026 196.279 194.857 195.771 194.687C195.264 194.518 194.756 194.349 194.417 194.01C194.248 193.841 194.078 193.671 193.74 193.502Z" fill="#A3A1A1"/>
<path d="M213.212 177.077C213.382 176.4 213.889 176.231 214.397 176.231H216.091C216.768 176.231 217.107 176.569 217.276 177.077L223.202 193.671C223.372 194.01 223.372 194.349 223.202 194.518C223.033 194.687 222.694 194.857 222.356 194.857H221.171C220.493 194.857 220.155 194.518 219.985 194.01L218.631 190.116H211.858L210.503 194.01C210.334 194.687 209.995 194.857 209.318 194.857H208.132C207.794 194.857 207.455 194.687 207.286 194.518C207.116 194.349 207.116 194.01 207.286 193.671L213.212 177.077ZM217.615 187.406L215.921 182.327C215.752 181.988 215.752 181.819 215.583 181.48C215.413 181.141 215.413 180.803 215.413 180.464C215.244 180.125 215.244 179.787 215.244 179.448C215.075 179.787 215.075 180.125 214.905 180.464C214.736 180.803 214.736 181.141 214.736 181.48C214.736 181.819 214.567 182.157 214.567 182.327L212.874 187.406H217.615Z" fill="#A3A1A1"/>
<path d="M225.234 193.502C225.065 193.333 224.896 193.163 224.726 192.825C224.726 192.655 224.726 192.317 225.065 191.978L225.573 191.132C225.742 190.793 226.081 190.624 226.25 190.624C226.42 190.624 226.758 190.624 227.097 190.793C227.266 190.962 227.436 190.962 227.774 191.132C227.944 191.301 228.282 191.47 228.621 191.64C228.96 191.809 229.298 191.978 229.637 191.978C229.976 192.147 230.484 192.147 230.991 192.147C231.838 192.147 232.515 191.978 233.023 191.47C233.531 191.132 233.701 190.624 233.701 189.946C233.701 189.269 233.531 188.93 233.023 188.422C232.515 188.084 232.007 187.745 231.33 187.406C230.653 187.068 229.976 186.729 229.298 186.39C228.621 186.052 227.774 185.713 227.266 185.205C226.589 184.697 226.081 184.189 225.573 183.512C225.065 182.835 224.896 181.988 224.896 181.141C224.896 180.295 225.065 179.617 225.404 178.94C225.742 178.263 226.25 177.755 226.758 177.247C227.266 176.739 227.944 176.4 228.79 176.061C229.637 175.723 230.314 175.723 231.33 175.723C231.838 175.723 232.346 175.723 232.854 175.892C233.362 176.061 233.87 176.061 234.209 176.231C234.547 176.4 235.055 176.569 235.394 176.739C235.733 176.908 235.902 177.077 236.241 177.247C236.749 177.585 236.918 178.093 236.579 178.771L236.071 179.617C235.902 179.956 235.563 180.125 235.394 180.125C235.055 180.125 234.886 180.125 234.547 179.956C234.209 179.787 233.701 179.448 233.193 179.279C232.685 179.109 232.007 178.94 231.33 178.94C230.484 178.94 229.806 179.109 229.298 179.448C228.79 179.787 228.452 180.295 228.452 180.972C228.452 181.48 228.621 181.988 229.129 182.496C229.637 183.004 230.145 183.173 230.822 183.512C231.499 183.85 232.177 184.189 232.854 184.358C233.531 184.697 234.378 185.036 234.886 185.544C235.563 186.052 236.071 186.56 236.579 187.237C237.087 187.914 237.257 188.761 237.257 189.777C237.257 190.454 237.087 191.301 236.749 191.978C236.41 192.655 236.071 193.333 235.563 193.671C235.055 194.179 234.378 194.518 233.531 194.857C232.685 195.195 231.838 195.365 230.822 195.365C230.145 195.365 229.468 195.365 228.96 195.195C228.282 195.026 227.774 194.857 227.266 194.687C226.758 194.518 226.25 194.349 225.912 194.01C225.742 193.841 225.404 193.671 225.234 193.502Z" fill="#A3A1A1"/>
</svg>
