<svg width="67" height="66" viewBox="0 0 67 66" fill="none" xmlns="http://www.w3.org/2000/svg">
<circle cx="33.9808" cy="33" r="33" fill="#2F80ED"/>
<path d="M31.3722 39.3266C31.3722 37.8156 31.3722 36.3381 31.3722 34.8271C31.3722 34.6592 31.3386 34.6256 31.1708 34.6256C30.2977 34.6256 29.4582 34.6256 28.5852 34.6256C28.1487 34.6256 27.9808 34.4577 27.9808 34.0212C27.9808 32.8795 27.9808 31.7378 27.9808 30.6297C27.9808 30.2268 28.1487 30.0589 28.5852 30.0253C29.4582 30.0253 30.2977 30.0253 31.1708 30.0253C31.3386 30.0253 31.3722 29.9917 31.3722 29.8238C31.3722 28.9844 31.3722 28.1113 31.3722 27.2718C31.3722 26.3652 31.5737 25.4586 32.0102 24.6527C32.6146 23.4439 33.5884 22.6716 34.898 22.2686C35.5024 22.0671 36.1404 22 36.7448 22C37.685 22 38.5916 22 39.5318 22C39.9012 22 40.0691 22.1679 40.0691 22.5373C40.0691 23.6118 40.0691 24.6863 40.0691 25.7608C40.0691 26.1302 39.9012 26.2981 39.5318 26.2981C38.7595 26.2981 38.0208 26.2645 37.2485 26.3317C36.8456 26.3652 36.4762 26.466 36.2411 26.8689C36.1404 27.0704 36.0732 27.3054 36.0732 27.5405C36.0732 28.3128 36.0732 29.1187 36.0732 29.891C36.0732 30.0253 36.1404 30.0253 36.2411 30.0253C37.2821 30.0253 38.2894 30.0253 39.3304 30.0253C39.7669 30.0253 39.9348 30.1932 39.9348 30.6297C39.9348 31.7714 39.9348 32.9131 39.9348 34.0212C39.9348 34.4241 39.7669 34.592 39.364 34.592C38.323 34.592 37.3156 34.592 36.2747 34.592C36.1068 34.592 36.0732 34.6256 36.0732 34.7935C36.0732 37.7484 36.0732 40.7369 36.0732 43.6919C36.0732 44.162 35.9053 44.3299 35.4352 44.3299C34.26 44.3299 33.1183 44.3299 31.9431 44.3299C31.5065 44.3299 31.3722 44.1619 31.3722 43.759C31.3722 42.2815 31.3722 40.8041 31.3722 39.3266Z" fill="#F2F2F2"/>
</svg>
