<svg width="46" height="46" viewBox="0 0 46 46" fill="none" xmlns="http://www.w3.org/2000/svg">
<rect width="46" height="46" rx="23" fill="#C4C4C4"/>
<path d="M21.0099 27.5441C21.0099 26.2538 21.0099 24.9666 21.0099 23.6763C21.0099 23.3973 21.0224 23.3941 20.7367 23.3941C20.1621 23.3941 19.5844 23.3941 19.0099 23.3941C18.9251 23.3941 18.8435 23.3941 18.7587 23.391C18.6865 23.3878 18.6425 23.3529 18.6394 23.2737C18.6362 23.2102 18.6362 23.1468 18.6362 23.0834C18.6362 22.2686 18.6362 21.457 18.6362 20.6423C18.6362 20.5693 18.6362 20.4932 18.6425 20.4203C18.6456 20.3759 18.677 20.3411 18.721 20.3379C18.8026 20.3284 18.8874 20.3284 18.9722 20.3252C19.484 20.3252 19.9989 20.3252 20.5106 20.3252C20.5829 20.3252 20.6582 20.3284 20.7304 20.322C20.8372 20.3157 20.8623 20.2903 20.8686 20.1921C20.8717 20.1065 20.8686 20.024 20.8717 19.9384C20.8843 19.2188 20.8623 18.5023 20.9377 17.7858C21.0884 16.3686 21.7822 15.3351 23.0758 14.7359C23.575 14.5044 24.1056 14.3903 24.6488 14.3237C25.4243 14.2286 26.1967 14.273 26.9628 14.403C27.4275 14.4822 27.3584 14.4093 27.3615 14.8595C27.3647 15.5348 27.3615 16.2133 27.3615 16.8885C27.3615 16.9741 27.3615 17.0566 27.3584 17.1422C27.3584 17.2151 27.327 17.2626 27.2454 17.2595C27.1418 17.2563 27.035 17.2531 26.9314 17.2531C26.5421 17.2468 26.159 17.288 25.7791 17.3768C25.5342 17.437 25.2987 17.5258 25.0884 17.6685C24.7147 17.9221 24.5107 18.2677 24.5138 18.7305C24.5169 19.2061 24.5138 19.6816 24.5169 20.1572C24.5169 20.2999 24.5389 20.322 24.6833 20.322C25.2265 20.3252 25.7728 20.322 26.316 20.3252C26.608 20.3252 26.9031 20.322 27.1951 20.3284C27.3427 20.3316 27.3647 20.3506 27.3553 20.4932C27.3333 20.7976 27.3019 21.1051 27.2736 21.4095C27.2171 21.977 27.1606 22.5445 27.1041 23.112C27.0978 23.1659 27.0978 23.2166 27.0915 23.2705C27.0852 23.3434 27.0476 23.3878 26.9722 23.391C26.8874 23.3941 26.8058 23.3941 26.721 23.3941C26.0837 23.3941 25.4432 23.3941 24.8058 23.3941C24.721 23.3941 24.6394 23.3941 24.5546 23.3973C24.495 23.4005 24.4573 23.4353 24.4541 23.4956C24.451 23.6002 24.4479 23.708 24.4479 23.8126C24.4479 26.3077 24.4479 28.7996 24.4479 31.2947C24.4479 31.3803 24.451 31.4627 24.4479 31.5483C24.4416 31.7036 24.4228 31.7195 24.2595 31.7258C24.1967 31.729 24.1339 31.7258 24.0711 31.7258C23.17 31.7258 22.272 31.7258 21.3709 31.7258C21.3081 31.7258 21.2453 31.7258 21.1826 31.7258C21.0193 31.7195 21.0067 31.71 21.0067 31.5388C21.0036 30.9047 21.0067 30.2706 21.0067 29.6366C21.0099 28.9391 21.0099 28.2416 21.0099 27.5441Z" fill="#F2F2F2"/>
</svg>
