<svg width="66" height="66" viewBox="0 0 66 66" fill="none" xmlns="http://www.w3.org/2000/svg">
<circle cx="33" cy="33" r="33" fill="#EB5757"/>
<path d="M40.6231 24.9299C39.6157 25.9037 38.6083 26.8775 37.601 27.8513C37.5338 27.8177 37.5002 27.7505 37.4331 27.717C36.1235 26.5417 34.6125 26.0716 32.8664 26.1388C29.5421 26.2395 26.7215 28.7915 26.2178 32.2165C25.6805 35.9773 28.1318 39.5031 31.859 40.1747C33.9745 40.544 35.9892 40.1747 37.6346 38.6636C38.5076 37.8913 39.112 36.9175 39.3807 35.7423C39.4142 35.6751 39.4142 35.5744 39.4478 35.4736C37.3323 35.4736 35.2169 35.4736 33.1014 35.4736C33.1014 34.1641 33.1014 32.9217 33.1014 31.6121C33.2022 31.6121 33.3365 31.6121 33.4372 31.6121C36.7279 31.6121 40.0186 31.6121 43.3094 31.6121C43.6787 31.6121 43.6787 31.5114 43.7123 31.9815C44.0481 34.6006 43.6787 37.119 42.3356 39.4359C40.8245 42.0215 38.5412 43.5661 35.6534 44.1705C32.1276 44.8757 28.9041 44.2041 26.0499 41.9543C23.7665 40.1411 22.3898 37.7234 21.9869 34.8357C21.181 28.993 24.7403 23.6539 30.4487 22.3444C34.176 21.4713 37.5338 22.2436 40.4216 24.8292C40.5223 24.8292 40.5559 24.8964 40.6231 24.9299Z" fill="#F2F2F2"/>
</svg>
