<svg width="46" height="46" viewBox="0 0 46 46" fill="none" xmlns="http://www.w3.org/2000/svg">
<rect width="46" height="46" rx="23" fill="#C4C4C4"/>
<g clip-path="url(#clip0)">
<path d="M22.995 10.4544C24.816 10.4544 26.637 10.4585 28.462 10.4544C30.1556 10.4503 31.6724 10.9477 32.9837 12.0208C34.1757 12.9951 34.9814 14.2326 35.3226 15.7414C35.45 16.2964 35.524 16.8802 35.5281 17.4476C35.5446 21.1477 35.5446 24.8478 35.5363 28.5438C35.5281 30.7187 34.6937 32.5276 33.033 33.9296C31.7587 35.0067 30.2584 35.5288 28.5854 35.5329C24.8612 35.5371 21.1329 35.5617 17.4087 35.5247C14.7081 35.4959 12.6692 34.2544 11.3169 31.9233C10.7208 30.8955 10.466 29.7608 10.466 28.5767C10.466 24.8561 10.4372 21.1354 10.4742 17.4188C10.4989 14.7095 11.7403 12.658 14.0792 11.3054C15.1191 10.7052 16.266 10.4544 17.4663 10.4544C19.3078 10.4585 21.1535 10.4544 22.995 10.4544ZM22.9991 33.3088C24.8283 33.3088 26.6575 33.3088 28.4867 33.3088C29.2143 33.3088 29.9254 33.1978 30.579 32.873C32.363 31.9808 33.292 30.5255 33.3043 28.5356C33.3248 24.8437 33.3125 21.1477 33.3084 17.4558C33.3084 16.7569 33.1974 16.0744 32.885 15.4413C31.9971 13.6447 30.5461 12.6991 28.5443 12.6868C24.8447 12.6621 21.1452 12.6786 17.4457 12.6827C16.2496 12.6827 15.1849 13.0568 14.2847 13.8544C13.1913 14.8287 12.6816 16.0621 12.6816 17.5175C12.6816 21.0614 12.6816 24.6012 12.6816 28.145C12.6816 28.4123 12.6857 28.6795 12.7062 28.9467C12.8254 30.4926 13.5489 31.6848 14.8232 32.5482C15.633 33.095 16.5373 33.3129 17.5074 33.3129C19.3407 33.3088 21.1699 33.3088 22.9991 33.3088Z" fill="#F2F2F2"/>
<path d="M22.9999 29.4565C19.4443 29.4524 16.5381 26.5417 16.5422 22.9937C16.5464 19.4375 19.4566 16.5308 23.0041 16.5349C26.5597 16.539 29.4659 19.4498 29.4618 22.9978C29.4576 26.554 26.5474 29.4607 22.9999 29.4565ZM23.0082 27.2283C25.343 27.22 27.2462 25.3124 27.2338 22.9855C27.2256 20.6503 25.3183 18.7509 22.9958 18.7591C20.6569 18.7673 18.7578 20.6749 18.7702 23.0019C18.7784 25.3412 20.6816 27.2406 23.0082 27.2283Z" fill="#F2F2F2"/>
<path d="M29.7412 17.9039C28.8451 17.908 28.1011 17.168 28.1011 16.2759C28.1011 15.3878 28.8328 14.6601 29.7247 14.6519C30.6126 14.6437 31.369 15.3919 31.3649 16.28C31.3608 17.168 30.6291 17.8998 29.7412 17.9039Z" fill="#F2F2F2"/>
</g>
<defs>
<clipPath id="clip0">
<rect x="10.4543" y="10.4543" width="25.0909" height="25.0909" fill="white"/>
</clipPath>
</defs>
</svg>
