<svg width="24" height="24" viewBox="0 0 24 24" fill="none" xmlns="http://www.w3.org/2000/svg">
<path d="M19.4707 9.7343C19.4797 11.4509 19.0508 13.0534 18.2021 14.5449C18.1391 14.6559 18.1571 14.7129 18.2411 14.797C19.9115 16.4625 21.5789 18.1341 23.2494 19.8026C23.7652 20.3188 24.0171 20.937 23.9991 21.6662C23.9751 22.8036 23.0424 23.8329 21.9178 23.977C21.0991 24.079 20.3973 23.842 19.8155 23.2598C18.1451 21.5912 16.4777 19.9227 14.8133 18.2511C14.7203 18.1551 14.6573 18.1431 14.5374 18.2121C13.2988 18.9173 11.9733 19.3225 10.5517 19.4515C5.95733 19.8776 1.57284 16.8316 0.355261 12.3512C-0.616404 8.77699 0.433234 5.07977 3.15929 2.55894C4.55681 1.26851 6.19724 0.44024 8.07759 0.143142C11.4244 -0.385032 14.3244 0.548276 16.7146 2.94607C18.2711 4.50958 19.1558 6.42121 19.4137 8.61793C19.4347 8.807 19.4557 8.99606 19.4647 9.18512C19.4767 9.36518 19.4707 9.55124 19.4707 9.7343ZM9.75402 2.42389C5.72941 2.41489 2.44554 5.68297 2.43654 9.70729C2.42455 13.7436 5.68142 17.0297 9.70004 17.0387C13.7456 17.0477 17.0355 13.8006 17.0445 9.78832C17.0535 5.70698 13.8086 2.4299 9.75402 2.42389Z" fill="#9C9C9C"/>
</svg>
