<svg width="46" height="46" viewBox="0 0 46 46" fill="none" xmlns="http://www.w3.org/2000/svg">
<rect width="46" height="46" rx="23" fill="#C4C4C4"/>
<path d="M9 36.9976C9.23407 36.3044 9.45437 35.648 9.67927 34.9916C10.2667 33.2656 10.8542 31.535 11.4325 29.8044C11.46 29.7218 11.4279 29.5933 11.382 29.5152C10.6385 28.2391 10.0923 26.8804 9.80778 25.4298C9.05508 21.583 9.75729 18.0255 12.0154 14.8122C13.7778 12.2921 16.1553 10.5799 19.0834 9.64342C20.7495 9.11093 22.4614 8.90896 24.2147 9.03749C26.638 9.21192 28.8686 9.95557 30.8834 11.3051C33.3985 12.9852 35.1793 15.2529 36.2074 18.0989C36.8041 19.7561 37.0657 21.4775 36.9831 23.2356C36.8545 25.8613 36.0468 28.2667 34.5322 30.4241C33.1645 32.3751 31.402 33.8669 29.2633 34.909C27.8634 35.5883 26.3902 36.0107 24.8434 36.1851C23.4344 36.3458 22.0346 36.2907 20.6439 36.0336C19.2992 35.7811 18.0232 35.3313 16.8116 34.6886C16.6739 34.6152 16.5546 34.6014 16.4031 34.6519C14.0257 35.4093 11.6482 36.1621 9.2662 36.9196C9.19277 36.9379 9.11933 36.9609 9 36.9976ZM12.4606 33.6053C12.5707 33.5777 12.6442 33.564 12.713 33.541C14.0348 33.1187 15.3612 32.701 16.6831 32.2741C16.8253 32.2282 16.9355 32.2328 17.0686 32.3154C18.3078 33.0958 19.648 33.6282 21.0937 33.8945C23.5262 34.3443 25.8669 34.0689 28.1159 33.0223C30.2179 32.0445 31.8794 30.571 33.1002 28.6018C34.5597 26.2515 35.0738 23.6946 34.6791 20.9771C34.2568 18.0714 32.857 15.6798 30.5989 13.8161C28.7951 12.3242 26.7114 11.452 24.3661 11.2363C21.8877 11.0114 19.5654 11.5071 17.4128 12.7603C15.8982 13.6417 14.6544 14.8122 13.6677 16.249C12.736 17.6078 12.1301 19.1088 11.8548 20.7384C11.639 22.0099 11.6436 23.2861 11.8593 24.553C12.1485 26.2331 12.7819 27.7755 13.7686 29.171C13.8604 29.2995 13.8834 29.4143 13.8283 29.5703C13.4795 30.5802 13.1399 31.5947 12.7956 32.6046C12.6855 32.9305 12.5799 33.2518 12.4606 33.6053Z" fill="#F2F2F2"/>
<path d="M18.9379 16.4389C19.0067 16.4389 19.0389 16.4435 19.0664 16.4389C19.6126 16.3517 19.8925 16.6317 20.0807 17.1137C20.379 17.8757 20.6866 18.6331 21.0308 19.3722C21.219 19.7807 21.1409 20.1158 20.8931 20.4372C20.682 20.7172 20.4525 20.9834 20.223 21.2497C19.9935 21.5159 19.9614 21.6536 20.1404 21.9474C21.0675 23.4898 22.2883 24.72 23.9223 25.5187C24.2022 25.6564 24.4914 25.785 24.7805 25.8997C25.0926 26.0283 25.2532 25.9869 25.469 25.7299C25.7948 25.3443 26.1115 24.9495 26.4236 24.5547C26.7082 24.1967 26.8734 24.137 27.291 24.3298C28.1769 24.7384 29.0581 25.1653 29.9393 25.583C30.1642 25.6886 30.2468 25.863 30.233 26.1017C30.1688 27.4788 29.7832 28.1582 28.2457 28.8146C27.5527 29.1084 26.8137 29.1543 26.0702 28.9432C24.9962 28.6356 23.9406 28.2867 22.9355 27.791C21.8156 27.2401 20.8472 26.4735 19.9706 25.5784C18.814 24.3987 17.7951 23.1134 17.0561 21.6261C16.5972 20.7034 16.4228 19.7165 16.6614 18.6882C16.8542 17.8574 17.304 17.1917 17.9465 16.6547C18.2449 16.4068 18.6074 16.4068 18.9379 16.4389Z" fill="#F2F2F2"/>
</svg>
