<svg width="21" height="21" viewBox="0 0 21 21" fill="none" xmlns="http://www.w3.org/2000/svg">
<path d="M4.62207 9.6477C4.62207 10.3336 5.16908 10.8923 5.84542 10.8923C6.51963 10.8923 7.06876 10.3358 7.06876 9.6477C7.06876 8.96177 6.52175 8.4031 5.84542 8.4031C5.16908 8.4031 4.62207 8.95961 4.62207 9.6477Z" fill="white"/>
<path d="M9.46021 9.6477C9.46021 10.3336 10.0072 10.8923 10.6835 10.8923C11.3578 10.8923 11.9069 10.3358 11.9069 9.6477C11.9069 8.96177 11.3599 8.4031 10.6835 8.4031C10.0072 8.4031 9.46021 8.95961 9.46021 9.6477Z" fill="white"/>
<path d="M14.2986 9.6477C14.2986 10.3336 14.8456 10.8923 15.5219 10.8923C16.1961 10.8923 16.7453 10.3358 16.7453 9.6477C16.7453 8.96177 16.1983 8.4031 15.5219 8.4031C14.8456 8.4031 14.2986 8.95961 14.2986 9.6477Z" fill="white"/>
<path d="M6.23761 16.653L6.23751 16.653L6.23748 16.653L5.83905 16.5653L5.49289 16.7814L3.23369 18.1921L3.40687 15.5563L3.43332 15.1537L3.17294 14.8454C2.30694 13.8202 1.7785 13 1.45717 12.1857C1.13925 11.3801 1 10.519 1 9.37963C1 5.20269 5.25682 1.51852 10.5395 1.51852C15.7821 1.51852 19.7778 5.1688 19.7778 9.37963C19.7778 13.5905 15.7821 17.2407 10.5395 17.2407C9.75674 17.2407 8.69654 17.1004 7.79312 16.9489C7.34971 16.8746 6.95873 16.8002 6.67888 16.7444C6.53912 16.7166 6.4275 16.6934 6.35142 16.6774L6.26499 16.659L6.24356 16.6543L6.23861 16.6533L6.23761 16.653Z" stroke="white" stroke-width="2"/>
</svg>
