<svg width="18" height="17" viewBox="0 0 18 17" fill="none" xmlns="http://www.w3.org/2000/svg">
<path d="M5.47976 14.4498L5.47973 14.4498L5.47972 14.4498L5.27609 14.4038L5.10021 14.5163L2.70846 16.0467L2.89324 13.1648L2.9059 12.9674L2.78007 12.8148C2.0547 11.9349 1.59455 11.2101 1.31116 10.4742C1.02927 9.74224 0.910645 8.96892 0.910645 7.97656C0.910645 4.19551 4.63119 1 9.08899 1C13.5269 1 17.0194 4.17826 17.0194 7.97656C17.0194 11.7749 13.5269 14.9531 9.08899 14.9531C8.41705 14.9531 7.52257 14.8307 6.77613 14.7025C6.40717 14.6392 6.08201 14.5757 5.84922 14.5282C5.73291 14.5044 5.63988 14.4847 5.57624 14.4709L5.50362 14.4551L5.48531 14.451L5.4809 14.45L5.47992 14.4498L5.47976 14.4498Z" stroke="white"/>
</svg>
